<?xml version="1.0" encoding="UTF-8"?><svg id="Layer_2" xmlns="http://www.w3.org/2000/svg" viewBox="0 0 109.85 115.03"><defs><style>.cls-1{fill:#f49600;stroke-width:0px;}</style></defs><g id="Layer_2-2"><path class="cls-1" d="M105.66,40.84c-2.75-6.29-6.56-11.65-11.4-16.08l-11.52,5.94-12.43,17.07c-.23.31-.22.72.01,1.03,1.04,1.4,1.95,2.95,2.61,4.75.97,2.65,1.47,5.56,1.47,8.72s-.49,6.24-1.47,8.93c-.98,2.7-2.35,5.03-4.12,6.98-1.77,1.95-3.84,3.47-6.21,4.53-2.37,1.07-4.96,1.6-7.75,1.6s-5.4-.53-7.82-1.6c-2.42-1.07-4.49-2.58-6.21-4.53-1.72-1.96-3.07-4.28-4.04-6.98-.98-2.7-1.47-5.67-1.47-8.93s.48-6.07,1.47-8.72c.97-2.65,2.32-4.89,4.04-6.7,1.72-1.82,3.79-3.23,6.21-4.26,2.42-1.02,5.03-1.53,7.82-1.53s5.38.51,7.75,1.53c.87.37,1.68.81,2.47,1.29.39.24.9.15,1.17-.22l11.58-15.89,2.11-12.19c-1.07-.47-2.17-.92-3.3-1.33-6.7-2.42-13.96-3.63-21.78-3.63s-15.08,1.21-21.77,3.63c-6.7,2.42-12.49,5.86-17.38,10.33-4.89,4.47-8.72,9.89-11.52,16.26C1.4,47.21,0,54.36,0,62.26s1.4,15.12,4.19,21.64c2.79,6.52,6.63,12.07,11.52,16.68,4.89,4.61,10.67,8.16,17.38,10.68,6.7,2.51,13.96,3.77,21.77,3.77s15.08-1.26,21.78-3.77c6.7-2.51,12.51-6.07,17.44-10.68,4.94-4.61,8.8-10.16,11.59-16.68,2.79-6.51,4.18-13.72,4.18-21.64s-1.39-15.05-4.18-21.42Z"/><polygon class="cls-1" points="82.24 26.54 106.18 14.19 86.84 0 82.24 26.54"/></g></svg>