<svg xmlns="http://www.w3.org/2000/svg" id="Layer_2" viewBox="0 0 109.8 115"><defs><style>.cls-1{fill:#fff;stroke-width:0}</style></defs><g id="Layer_2-2"><path d="M105.7 40.8a47 47 0 0 0-11.4-16l-11.6 5.9-12.4 17c-.2.4-.2.8 0 1.1 1 1.4 2 3 2.6 4.8a26.2 26.2 0 0 1 0 17.7 18.6 18.6 0 0 1-18 13.1 19 19 0 0 1-18.1-13.2 25.7 25.7 0 0 1 0-17.6 18.2 18.2 0 0 1 10.3-11 20 20 0 0 1 18 1.3c.4.2.9.1 1.1-.2l11.6-16 2.2-12a63.7 63.7 0 0 0-25-5c-7.9 0-15.1 1.2-21.8 3.7a47.7 47.7 0 0 0-29 26.5C1.4 47.1 0 54.3 0 62.2s1.4 15 4.2 21.6A49.2 49.2 0 0 0 33 111.3c6.7 2.5 14 3.7 21.8 3.7s15-1.2 21.7-3.7a48.7 48.7 0 0 0 29-27.4c2.9-6.5 4.3-13.7 4.3-21.6s-1.4-15-4.2-21.5Z" class="cls-1"/><path d="m82.2 26.5 24-12.3L86.8 0l-4.6 26.5z" class="cls-1"/></g></svg>