<svg xmlns="http://www.w3.org/2000/svg" id="Layer_2" viewBox="0 0 314.6 48.6"><defs><style>.cls-1{fill:#fff;stroke-width:0}</style></defs><g id="Layer_1-2"><path d="M0 5.8h15.5l6.8 25.3h.2L29 5.8h15.5L29.7 46.7H14.5L0 5.8Zm96 0h14v29h13.5v11.9H96V5.8Zm48.7 42.1c-3.2 0-6-.5-8.3-1.4s-4.4-2-6-3.6-2.7-3.4-3.5-5.5-1.1-4.3-1.1-6.7V5.8h13.7v23.3c0 2 .5 3.5 1.4 4.6s2.3 1.7 4 1.7 3.1-.6 4-1.7c1-1 1.4-2.6 1.4-4.6V5.8H164v24.9c0 2.4-.4 4.6-1.2 6.7-.8 2.1-2 4-3.7 5.5a17.4 17.4 0 0 1-6 3.6c-2.4.9-5.2 1.4-8.4 1.4Zm36.2-24.3.6 23.1h-12.8V5.8h18l7.4 22h.3l6.4-22h18.5v40.9H206l.4-23h-.4l-7.6 23h-9.7l-7.5-23.1h-.3Zm43.6-17.8h28.1v11.5h-15.1v3.5h14.2v10.7h-14.2v3.8h16.1v11.4h-29V5.8Zm45.3 14.6-6.9 4.7-6.4-10L271 5.8h12.7v40.9h-13.9V20.4Zm31 0-6.9 4.7-6.5-10L302 5.8h12.7v40.9h-13.8V20.4ZM88.8 18a19.7 19.7 0 0 0-4.8-6.8l-4.6 2.4-5.2 7.2c-.1.1-.1.3 0 .4a8 8 0 0 1 1 2 10.8 10.8 0 0 1 0 7.3c-.3 1.1-1 2-1.6 2.9a7.8 7.8 0 0 1-13.3-3c-.4-1-.6-2.3-.6-3.6s.2-2.5.6-3.6a7.5 7.5 0 0 1 4.2-4.5 8.3 8.3 0 0 1 7.5.5l.5-.1 4.9-6.7.8-4.9-1.4-.6c-2.8-1-5.8-1.5-9-1.5s-6.2.5-9 1.5-5.2 2.5-7.2 4.3c-2 1.9-3.6 4.1-4.8 6.7a24 24 0 0 0 0 17.9 20.4 20.4 0 0 0 12 11.3c2.8 1 5.8 1.5 9 1.5s6.2-.5 9-1.5a20.5 20.5 0 0 0 12-11.4c1.1-2.7 1.7-5.6 1.7-9s-.5-6.1-1.7-8.8Z" class="cls-1"/><path d="m80 10.9 9.6-5.1L81.8 0 80 10.9z" class="cls-1"/></g></svg>