<svg xmlns="http://www.w3.org/2000/svg" id="Layer_2" viewBox="0 0 314.62 48.61">
<defs>
<style>
.cls-2,.cls-3{stroke-width:0}.cls-2{fill:#F9CA00}.cls-3{fill:#fff}</style></defs><g id="Layer_1-2"><path d="M0 5.83h15.53l6.75 25.28h.23l6.46-25.28H44.5L29.73 46.69H14.49L0 5.83ZM96.04 5.83h13.85v29.03h13.56v11.83H96.04V5.83ZM144.7 47.85c-3.19 0-5.97-.44-8.34-1.33s-4.34-2.1-5.92-3.64-2.75-3.36-3.52-5.45-1.15-4.36-1.15-6.78V5.83h13.74v23.32c0 1.96.47 3.49 1.41 4.59s2.28 1.64 4.01 1.64 3.07-.55 4.01-1.64c.94-1.1 1.41-2.63 1.41-4.59V5.83h13.68v24.82c0 2.42-.41 4.68-1.24 6.78-.83 2.1-2.05 3.92-3.67 5.45-1.62 1.54-3.63 2.75-6.03 3.64-2.41.88-5.2 1.33-8.4 1.33ZM180.9 23.61l.64 23.09h-12.81V5.83h17.97l7.4 21.99h.29l6.41-21.99h18.55v40.86h-13.39l.41-22.97-.35-.06-7.62 23.03h-9.7l-7.5-23.09h-.29ZM224.54 5.83h28.11v11.43h-15.18v3.52h14.26v10.68h-14.26v3.81h16.16V46.7h-29.09V5.83Z" class="cls-3"/><path d="m269.8 20.38-6.87 4.73-6.46-10.04 14.49-9.23h12.7V46.7h-13.85V20.38ZM300.77 20.38l-6.87 4.73-6.46-10.04 14.49-9.23h12.7V46.7h-13.85V20.38Z" class="cls-2"/><path d="M88.79 17.94c-1.15-2.62-2.74-4.85-4.76-6.7l-4.63 2.39-5.22 7.17c-.09.13-.09.3 0 .43.43.58.8 1.22 1.08 1.96.4 1.1.61 2.3.61 3.61s-.2 2.58-.61 3.69c-.41 1.12-.97 2.08-1.7 2.89s-1.59 1.43-2.57 1.88c-.98.44-2.05.66-3.2.66s-2.23-.22-3.23-.66c-1-.44-1.86-1.07-2.57-1.88-.71-.81-1.27-1.77-1.67-2.89-.41-1.12-.61-2.35-.61-3.69s.2-2.51.61-3.61c.4-1.1.96-2.02 1.67-2.77s1.57-1.34 2.57-1.76c1-.42 2.08-.63 3.23-.63s2.22.21 3.2.63c.36.15.7.33 1.02.53.16.1.37.06.49-.09l4.87-6.68.85-4.9c-.46-.21-.93-.4-1.42-.58-2.77-1-5.77-1.5-9.01-1.5s-6.23.5-9 1.5c-2.77 1-5.17 2.42-7.19 4.27-2.02 1.85-3.61 4.09-4.76 6.72-1.15 2.64-1.73 5.59-1.73 8.86s.58 6.25 1.73 8.95c1.15 2.69 2.74 4.99 4.76 6.9 2.02 1.91 4.41 3.38 7.19 4.42 2.77 1.04 5.77 1.56 9 1.56s6.23-.52 9.01-1.56c2.77-1.04 5.17-2.51 7.21-4.42 2.04-1.91 3.64-4.2 4.79-6.9 1.15-2.69 1.73-5.68 1.73-8.95s-.58-6.22-1.73-8.86Z" class="cls-3"/><path class="cls-2" d="m80.01 10.93 9.58-5.08L81.85 0l-1.84 10.93z"/></g></svg>